<svg xmlns="http://www.w3.org/2000/svg" xmlns:xlink="http://www.w3.org/1999/xlink" width="440" zoomAndPan="magnify" viewBox="0 0 330 449.999984" height="600" preserveAspectRatio="xMidYMid meet" version="1.0"><defs><g/><linearGradient x1="220" gradientTransform="matrix(0.75, 0, 0, 0.75, 0.00000597667, 0)" y1="0" x2="220" gradientUnits="userSpaceOnUse" y2="599.999975" id="360a1ddb12"><stop stop-opacity="1" stop-color="rgb(2.349854%, 60.389709%, 52.549744%)" offset="0"/><stop stop-opacity="1" stop-color="rgb(2.362061%, 60.076904%, 52.423096%)" offset="0.00390625"/><stop stop-opacity="1" stop-color="rgb(2.374268%, 59.764099%, 52.297974%)" offset="0.0078125"/><stop stop-opacity="1" stop-color="rgb(2.386475%, 59.451294%, 52.171326%)" offset="0.0117188"/><stop stop-opacity="1" stop-color="rgb(2.398682%, 59.138489%, 52.046204%)" offset="0.015625"/><stop stop-opacity="1" stop-color="rgb(2.410889%, 58.825684%, 51.921082%)" offset="0.0195312"/><stop stop-opacity="1" stop-color="rgb(2.423096%, 58.514404%, 51.795959%)" offset="0.0234375"/><stop stop-opacity="1" stop-color="rgb(2.435303%, 58.201599%, 51.669312%)" offset="0.0273438"/><stop stop-opacity="1" stop-color="rgb(2.44751%, 57.888794%, 51.544189%)" offset="0.03125"/><stop stop-opacity="1" stop-color="rgb(2.459717%, 57.575989%, 51.417542%)" offset="0.0351562"/><stop stop-opacity="1" stop-color="rgb(2.471924%, 57.264709%, 51.292419%)" offset="0.0390625"/><stop stop-opacity="1" stop-color="rgb(2.484131%, 56.951904%, 51.167297%)" offset="0.0429688"/><stop stop-opacity="1" stop-color="rgb(2.496338%, 56.639099%, 51.042175%)" offset="0.046875"/><stop stop-opacity="1" stop-color="rgb(2.508545%, 56.326294%, 50.915527%)" offset="0.0507812"/><stop stop-opacity="1" stop-color="rgb(2.520752%, 56.013489%, 50.790405%)" offset="0.0546875"/><stop stop-opacity="1" stop-color="rgb(2.532959%, 55.700684%, 50.663757%)" offset="0.0585938"/><stop stop-opacity="1" stop-color="rgb(2.545166%, 55.389404%, 50.538635%)" offset="0.0625"/><stop stop-opacity="1" stop-color="rgb(2.557373%, 55.076599%, 50.413513%)" offset="0.0664062"/><stop stop-opacity="1" stop-color="rgb(2.56958%, 54.763794%, 50.288391%)" offset="0.0703125"/><stop stop-opacity="1" stop-color="rgb(2.581787%, 54.450989%, 50.161743%)" offset="0.0742188"/><stop stop-opacity="1" stop-color="rgb(2.593994%, 54.139709%, 50.036621%)" offset="0.078125"/><stop stop-opacity="1" stop-color="rgb(2.606201%, 53.826904%, 49.909973%)" offset="0.0820312"/><stop stop-opacity="1" stop-color="rgb(2.618408%, 53.514099%, 49.784851%)" offset="0.0859375"/><stop stop-opacity="1" stop-color="rgb(2.630615%, 53.201294%, 49.659729%)" offset="0.0898438"/><stop stop-opacity="1" stop-color="rgb(2.644348%, 52.888489%, 49.534607%)" offset="0.09375"/><stop stop-opacity="1" stop-color="rgb(2.656555%, 52.575684%, 49.407959%)" offset="0.0976562"/><stop stop-opacity="1" stop-color="rgb(2.668762%, 52.264404%, 49.282837%)" offset="0.101562"/><stop stop-opacity="1" stop-color="rgb(2.680969%, 51.951599%, 49.156189%)" offset="0.105469"/><stop stop-opacity="1" stop-color="rgb(2.693176%, 51.638794%, 49.031067%)" offset="0.109375"/><stop stop-opacity="1" stop-color="rgb(2.705383%, 51.325989%, 48.905945%)" offset="0.113281"/><stop stop-opacity="1" stop-color="rgb(2.71759%, 51.014709%, 48.780823%)" offset="0.117188"/><stop stop-opacity="1" stop-color="rgb(2.729797%, 50.701904%, 48.654175%)" offset="0.121094"/><stop stop-opacity="1" stop-color="rgb(2.742004%, 50.389099%, 48.529053%)" offset="0.125"/><stop stop-opacity="1" stop-color="rgb(2.754211%, 50.076294%, 48.402405%)" offset="0.128906"/><stop stop-opacity="1" stop-color="rgb(2.766418%, 49.763489%, 48.277283%)" offset="0.132812"/><stop stop-opacity="1" stop-color="rgb(2.778625%, 49.450684%, 48.152161%)" offset="0.136719"/><stop stop-opacity="1" stop-color="rgb(2.790833%, 49.139404%, 48.027039%)" offset="0.140625"/><stop stop-opacity="1" stop-color="rgb(2.80304%, 48.826599%, 47.900391%)" offset="0.144531"/><stop stop-opacity="1" stop-color="rgb(2.815247%, 48.513794%, 47.775269%)" offset="0.148438"/><stop stop-opacity="1" stop-color="rgb(2.827454%, 48.200989%, 47.648621%)" offset="0.152344"/><stop stop-opacity="1" stop-color="rgb(2.839661%, 47.889709%, 47.523499%)" offset="0.15625"/><stop stop-opacity="1" stop-color="rgb(2.851868%, 47.576904%, 47.398376%)" offset="0.160156"/><stop stop-opacity="1" stop-color="rgb(2.864075%, 47.264099%, 47.273254%)" offset="0.164062"/><stop stop-opacity="1" stop-color="rgb(2.876282%, 46.951294%, 47.146606%)" offset="0.167969"/><stop stop-opacity="1" stop-color="rgb(2.888489%, 46.638489%, 47.021484%)" offset="0.171875"/><stop stop-opacity="1" stop-color="rgb(2.900696%, 46.325684%, 46.896362%)" offset="0.175781"/><stop stop-opacity="1" stop-color="rgb(2.912903%, 46.014404%, 46.77124%)" offset="0.179688"/><stop stop-opacity="1" stop-color="rgb(2.92511%, 45.701599%, 46.644592%)" offset="0.183594"/><stop stop-opacity="1" stop-color="rgb(2.937317%, 45.388794%, 46.51947%)" offset="0.1875"/><stop stop-opacity="1" stop-color="rgb(2.949524%, 45.075989%, 46.392822%)" offset="0.191406"/><stop stop-opacity="1" stop-color="rgb(2.963257%, 44.764709%, 46.2677%)" offset="0.195312"/><stop stop-opacity="1" stop-color="rgb(2.975464%, 44.451904%, 46.142578%)" offset="0.199219"/><stop stop-opacity="1" stop-color="rgb(2.987671%, 44.139099%, 46.017456%)" offset="0.203125"/><stop stop-opacity="1" stop-color="rgb(2.999878%, 43.826294%, 45.890808%)" offset="0.207031"/><stop stop-opacity="1" stop-color="rgb(3.012085%, 43.513489%, 45.765686%)" offset="0.210938"/><stop stop-opacity="1" stop-color="rgb(3.024292%, 43.200684%, 45.639038%)" offset="0.214844"/><stop stop-opacity="1" stop-color="rgb(3.036499%, 42.889404%, 45.513916%)" offset="0.21875"/><stop stop-opacity="1" stop-color="rgb(3.048706%, 42.576599%, 45.388794%)" offset="0.222656"/><stop stop-opacity="1" stop-color="rgb(3.060913%, 42.263794%, 45.263672%)" offset="0.226562"/><stop stop-opacity="1" stop-color="rgb(3.07312%, 41.950989%, 45.137024%)" offset="0.230469"/><stop stop-opacity="1" stop-color="rgb(3.085327%, 41.639709%, 45.011902%)" offset="0.234375"/><stop stop-opacity="1" stop-color="rgb(3.097534%, 41.326904%, 44.885254%)" offset="0.238281"/><stop stop-opacity="1" stop-color="rgb(3.109741%, 41.014099%, 44.760132%)" offset="0.242188"/><stop stop-opacity="1" stop-color="rgb(3.121948%, 40.701294%, 44.63501%)" offset="0.246094"/><stop stop-opacity="1" stop-color="rgb(3.134155%, 40.388489%, 44.509888%)" offset="0.25"/><stop stop-opacity="1" stop-color="rgb(3.146362%, 40.075684%, 44.38324%)" offset="0.253906"/><stop stop-opacity="1" stop-color="rgb(3.158569%, 39.764404%, 44.258118%)" offset="0.257812"/><stop stop-opacity="1" stop-color="rgb(3.170776%, 39.451599%, 44.13147%)" offset="0.261719"/><stop stop-opacity="1" stop-color="rgb(3.182983%, 39.138794%, 44.006348%)" offset="0.265625"/><stop stop-opacity="1" stop-color="rgb(3.19519%, 38.825989%, 43.881226%)" offset="0.269531"/><stop stop-opacity="1" stop-color="rgb(3.207397%, 38.514709%, 43.756104%)" offset="0.273438"/><stop stop-opacity="1" stop-color="rgb(3.219604%, 38.201904%, 43.629456%)" offset="0.277344"/><stop stop-opacity="1" stop-color="rgb(3.231812%, 37.889099%, 43.504333%)" offset="0.28125"/><stop stop-opacity="1" stop-color="rgb(3.244019%, 37.576294%, 43.377686%)" offset="0.285156"/><stop stop-opacity="1" stop-color="rgb(3.256226%, 37.263489%, 43.252563%)" offset="0.289062"/><stop stop-opacity="1" stop-color="rgb(3.268433%, 36.950684%, 43.127441%)" offset="0.292969"/><stop stop-opacity="1" stop-color="rgb(3.282166%, 36.639404%, 43.002319%)" offset="0.296875"/><stop stop-opacity="1" stop-color="rgb(3.294373%, 36.326599%, 42.875671%)" offset="0.300781"/><stop stop-opacity="1" stop-color="rgb(3.30658%, 36.013794%, 42.750549%)" offset="0.304688"/><stop stop-opacity="1" stop-color="rgb(3.318787%, 35.700989%, 42.623901%)" offset="0.308594"/><stop stop-opacity="1" stop-color="rgb(3.330994%, 35.389709%, 42.498779%)" offset="0.3125"/><stop stop-opacity="1" stop-color="rgb(3.343201%, 35.076904%, 42.373657%)" offset="0.316406"/><stop stop-opacity="1" stop-color="rgb(3.355408%, 34.764099%, 42.248535%)" offset="0.320312"/><stop stop-opacity="1" stop-color="rgb(3.367615%, 34.451294%, 42.121887%)" offset="0.324219"/><stop stop-opacity="1" stop-color="rgb(3.379822%, 34.138489%, 41.996765%)" offset="0.328125"/><stop stop-opacity="1" stop-color="rgb(3.392029%, 33.825684%, 41.870117%)" offset="0.332031"/><stop stop-opacity="1" stop-color="rgb(3.404236%, 33.514404%, 41.744995%)" offset="0.335938"/><stop stop-opacity="1" stop-color="rgb(3.416443%, 33.201599%, 41.619873%)" offset="0.339844"/><stop stop-opacity="1" stop-color="rgb(3.42865%, 32.888794%, 41.494751%)" offset="0.34375"/><stop stop-opacity="1" stop-color="rgb(3.440857%, 32.575989%, 41.368103%)" offset="0.347656"/><stop stop-opacity="1" stop-color="rgb(3.453064%, 32.264709%, 41.242981%)" offset="0.351562"/><stop stop-opacity="1" stop-color="rgb(3.465271%, 31.951904%, 41.116333%)" offset="0.355469"/><stop stop-opacity="1" stop-color="rgb(3.477478%, 31.639099%, 40.991211%)" offset="0.359375"/><stop stop-opacity="1" stop-color="rgb(3.489685%, 31.326294%, 40.866089%)" offset="0.363281"/><stop stop-opacity="1" stop-color="rgb(3.501892%, 31.013489%, 40.740967%)" offset="0.367188"/><stop stop-opacity="1" stop-color="rgb(3.514099%, 30.700684%, 40.614319%)" offset="0.371094"/><stop stop-opacity="1" stop-color="rgb(3.526306%, 30.389404%, 40.489197%)" offset="0.375"/><stop stop-opacity="1" stop-color="rgb(3.538513%, 30.076599%, 40.362549%)" offset="0.378906"/><stop stop-opacity="1" stop-color="rgb(3.55072%, 29.763794%, 40.237427%)" offset="0.382812"/><stop stop-opacity="1" stop-color="rgb(3.562927%, 29.450989%, 40.112305%)" offset="0.386719"/><stop stop-opacity="1" stop-color="rgb(3.575134%, 29.139709%, 39.987183%)" offset="0.390625"/><stop stop-opacity="1" stop-color="rgb(3.587341%, 28.826904%, 39.860535%)" offset="0.394531"/><stop stop-opacity="1" stop-color="rgb(3.601074%, 28.514099%, 39.735413%)" offset="0.398438"/><stop stop-opacity="1" stop-color="rgb(3.613281%, 28.201294%, 39.608765%)" offset="0.402344"/><stop stop-opacity="1" stop-color="rgb(3.625488%, 27.888489%, 39.483643%)" offset="0.40625"/><stop stop-opacity="1" stop-color="rgb(3.637695%, 27.575684%, 39.358521%)" offset="0.410156"/><stop stop-opacity="1" stop-color="rgb(3.649902%, 27.264404%, 39.233398%)" offset="0.414062"/><stop stop-opacity="1" stop-color="rgb(3.662109%, 26.951599%, 39.10675%)" offset="0.417969"/><stop stop-opacity="1" stop-color="rgb(3.674316%, 26.638794%, 38.981628%)" offset="0.421875"/><stop stop-opacity="1" stop-color="rgb(3.686523%, 26.325989%, 38.85498%)" offset="0.425781"/><stop stop-opacity="1" stop-color="rgb(3.69873%, 26.014709%, 38.729858%)" offset="0.429688"/><stop stop-opacity="1" stop-color="rgb(3.710938%, 25.701904%, 38.604736%)" offset="0.433594"/><stop stop-opacity="1" stop-color="rgb(3.723145%, 25.389099%, 38.479614%)" offset="0.4375"/><stop stop-opacity="1" stop-color="rgb(3.735352%, 25.076294%, 38.352966%)" offset="0.441406"/><stop stop-opacity="1" stop-color="rgb(3.747559%, 24.763489%, 38.227844%)" offset="0.445312"/><stop stop-opacity="1" stop-color="rgb(3.759766%, 24.450684%, 38.101196%)" offset="0.449219"/><stop stop-opacity="1" stop-color="rgb(3.771973%, 24.139404%, 37.976074%)" offset="0.453125"/><stop stop-opacity="1" stop-color="rgb(3.78418%, 23.826599%, 37.850952%)" offset="0.457031"/><stop stop-opacity="1" stop-color="rgb(3.796387%, 23.513794%, 37.72583%)" offset="0.460938"/><stop stop-opacity="1" stop-color="rgb(3.808594%, 23.200989%, 37.599182%)" offset="0.464844"/><stop stop-opacity="1" stop-color="rgb(3.820801%, 22.889709%, 37.47406%)" offset="0.46875"/><stop stop-opacity="1" stop-color="rgb(3.833008%, 22.576904%, 37.347412%)" offset="0.472656"/><stop stop-opacity="1" stop-color="rgb(3.845215%, 22.264099%, 37.22229%)" offset="0.476562"/><stop stop-opacity="1" stop-color="rgb(3.857422%, 21.951294%, 37.097168%)" offset="0.480469"/><stop stop-opacity="1" stop-color="rgb(3.869629%, 21.638489%, 36.972046%)" offset="0.484375"/><stop stop-opacity="1" stop-color="rgb(3.881836%, 21.325684%, 36.845398%)" offset="0.488281"/><stop stop-opacity="1" stop-color="rgb(3.894043%, 21.014404%, 36.720276%)" offset="0.492188"/><stop stop-opacity="1" stop-color="rgb(3.90625%, 20.701599%, 36.593628%)" offset="0.496094"/><stop stop-opacity="1" stop-color="rgb(3.919983%, 20.388794%, 36.468506%)" offset="0.5"/><stop stop-opacity="1" stop-color="rgb(4.151917%, 20.239258%, 36.453247%)" offset="0.503906"/><stop stop-opacity="1" stop-color="rgb(4.385376%, 20.089722%, 36.437988%)" offset="0.507812"/><stop stop-opacity="1" stop-color="rgb(4.61731%, 19.93866%, 36.422729%)" offset="0.511719"/><stop stop-opacity="1" stop-color="rgb(4.850769%, 19.789124%, 36.407471%)" offset="0.515625"/><stop stop-opacity="1" stop-color="rgb(5.082703%, 19.638062%, 36.392212%)" offset="0.519531"/><stop stop-opacity="1" stop-color="rgb(5.316162%, 19.488525%, 36.376953%)" offset="0.523438"/><stop stop-opacity="1" stop-color="rgb(5.549622%, 19.337463%, 36.361694%)" offset="0.527344"/><stop stop-opacity="1" stop-color="rgb(5.783081%, 19.187927%, 36.346436%)" offset="0.53125"/><stop stop-opacity="1" stop-color="rgb(6.015015%, 19.038391%, 36.331177%)" offset="0.535156"/><stop stop-opacity="1" stop-color="rgb(6.248474%, 18.888855%, 36.315918%)" offset="0.539062"/><stop stop-opacity="1" stop-color="rgb(6.480408%, 18.737793%, 36.300659%)" offset="0.542969"/><stop stop-opacity="1" stop-color="rgb(6.713867%, 18.588257%, 36.2854%)" offset="0.546875"/><stop stop-opacity="1" stop-color="rgb(6.945801%, 18.437195%, 36.270142%)" offset="0.550781"/><stop stop-opacity="1" stop-color="rgb(7.17926%, 18.287659%, 36.254883%)" offset="0.554688"/><stop stop-opacity="1" stop-color="rgb(7.41272%, 18.138123%, 36.239624%)" offset="0.558594"/><stop stop-opacity="1" stop-color="rgb(7.646179%, 17.988586%, 36.224365%)" offset="0.5625"/><stop stop-opacity="1" stop-color="rgb(7.878113%, 17.837524%, 36.209106%)" offset="0.566406"/><stop stop-opacity="1" stop-color="rgb(8.111572%, 17.687988%, 36.193848%)" offset="0.570312"/><stop stop-opacity="1" stop-color="rgb(8.343506%, 17.536926%, 36.178589%)" offset="0.574219"/><stop stop-opacity="1" stop-color="rgb(8.576965%, 17.38739%, 36.16333%)" offset="0.578125"/><stop stop-opacity="1" stop-color="rgb(8.808899%, 17.236328%, 36.148071%)" offset="0.582031"/><stop stop-opacity="1" stop-color="rgb(9.042358%, 17.086792%, 36.132812%)" offset="0.585938"/><stop stop-opacity="1" stop-color="rgb(9.275818%, 16.937256%, 36.117554%)" offset="0.589844"/><stop stop-opacity="1" stop-color="rgb(9.509277%, 16.78772%, 36.102295%)" offset="0.59375"/><stop stop-opacity="1" stop-color="rgb(9.741211%, 16.636658%, 36.087036%)" offset="0.597656"/><stop stop-opacity="1" stop-color="rgb(9.97467%, 16.487122%, 36.071777%)" offset="0.601562"/><stop stop-opacity="1" stop-color="rgb(10.206604%, 16.33606%, 36.054993%)" offset="0.605469"/><stop stop-opacity="1" stop-color="rgb(10.440063%, 16.186523%, 36.039734%)" offset="0.609375"/><stop stop-opacity="1" stop-color="rgb(10.671997%, 16.036987%, 36.024475%)" offset="0.613281"/><stop stop-opacity="1" stop-color="rgb(10.905457%, 15.887451%, 36.009216%)" offset="0.617188"/><stop stop-opacity="1" stop-color="rgb(11.138916%, 15.736389%, 35.993958%)" offset="0.621094"/><stop stop-opacity="1" stop-color="rgb(11.372375%, 15.586853%, 35.978699%)" offset="0.625"/><stop stop-opacity="1" stop-color="rgb(11.604309%, 15.435791%, 35.96344%)" offset="0.628906"/><stop stop-opacity="1" stop-color="rgb(11.837769%, 15.286255%, 35.948181%)" offset="0.632812"/><stop stop-opacity="1" stop-color="rgb(12.069702%, 15.136719%, 35.932922%)" offset="0.636719"/><stop stop-opacity="1" stop-color="rgb(12.303162%, 14.987183%, 35.917664%)" offset="0.640625"/><stop stop-opacity="1" stop-color="rgb(12.535095%, 14.836121%, 35.902405%)" offset="0.644531"/><stop stop-opacity="1" stop-color="rgb(12.768555%, 14.686584%, 35.887146%)" offset="0.648438"/><stop stop-opacity="1" stop-color="rgb(13.002014%, 14.535522%, 35.871887%)" offset="0.652344"/><stop stop-opacity="1" stop-color="rgb(13.235474%, 14.385986%, 35.856628%)" offset="0.65625"/><stop stop-opacity="1" stop-color="rgb(13.467407%, 14.234924%, 35.84137%)" offset="0.660156"/><stop stop-opacity="1" stop-color="rgb(13.700867%, 14.085388%, 35.826111%)" offset="0.664062"/><stop stop-opacity="1" stop-color="rgb(13.9328%, 13.935852%, 35.810852%)" offset="0.667969"/><stop stop-opacity="1" stop-color="rgb(14.16626%, 13.786316%, 35.795593%)" offset="0.671875"/><stop stop-opacity="1" stop-color="rgb(14.398193%, 13.635254%, 35.780334%)" offset="0.675781"/><stop stop-opacity="1" stop-color="rgb(14.631653%, 13.485718%, 35.765076%)" offset="0.679688"/><stop stop-opacity="1" stop-color="rgb(14.865112%, 13.334656%, 35.749817%)" offset="0.683594"/><stop stop-opacity="1" stop-color="rgb(15.098572%, 13.18512%, 35.734558%)" offset="0.6875"/><stop stop-opacity="1" stop-color="rgb(15.330505%, 13.035583%, 35.719299%)" offset="0.691406"/><stop stop-opacity="1" stop-color="rgb(15.563965%, 12.886047%, 35.704041%)" offset="0.695312"/><stop stop-opacity="1" stop-color="rgb(15.795898%, 12.734985%, 35.688782%)" offset="0.699219"/><stop stop-opacity="1" stop-color="rgb(16.029358%, 12.585449%, 35.673523%)" offset="0.703125"/><stop stop-opacity="1" stop-color="rgb(16.261292%, 12.434387%, 35.658264%)" offset="0.707031"/><stop stop-opacity="1" stop-color="rgb(16.494751%, 12.284851%, 35.643005%)" offset="0.710938"/><stop stop-opacity="1" stop-color="rgb(16.72821%, 12.133789%, 35.627747%)" offset="0.714844"/><stop stop-opacity="1" stop-color="rgb(16.96167%, 11.984253%, 35.612488%)" offset="0.71875"/><stop stop-opacity="1" stop-color="rgb(17.193604%, 11.834717%, 35.595703%)" offset="0.722656"/><stop stop-opacity="1" stop-color="rgb(17.427063%, 11.685181%, 35.580444%)" offset="0.726562"/><stop stop-opacity="1" stop-color="rgb(17.658997%, 11.534119%, 35.565186%)" offset="0.730469"/><stop stop-opacity="1" stop-color="rgb(17.892456%, 11.384583%, 35.549927%)" offset="0.734375"/><stop stop-opacity="1" stop-color="rgb(18.12439%, 11.233521%, 35.534668%)" offset="0.738281"/><stop stop-opacity="1" stop-color="rgb(18.357849%, 11.083984%, 35.519409%)" offset="0.742188"/><stop stop-opacity="1" stop-color="rgb(18.591309%, 10.934448%, 35.50415%)" offset="0.746094"/><stop stop-opacity="1" stop-color="rgb(18.824768%, 10.784912%, 35.488892%)" offset="0.75"/><stop stop-opacity="1" stop-color="rgb(19.056702%, 10.63385%, 35.473633%)" offset="0.753906"/><stop stop-opacity="1" stop-color="rgb(19.290161%, 10.484314%, 35.458374%)" offset="0.757812"/><stop stop-opacity="1" stop-color="rgb(19.522095%, 10.333252%, 35.443115%)" offset="0.761719"/><stop stop-opacity="1" stop-color="rgb(19.755554%, 10.183716%, 35.427856%)" offset="0.765625"/><stop stop-opacity="1" stop-color="rgb(19.987488%, 10.032654%, 35.412598%)" offset="0.769531"/><stop stop-opacity="1" stop-color="rgb(20.220947%, 9.883118%, 35.397339%)" offset="0.773438"/><stop stop-opacity="1" stop-color="rgb(20.454407%, 9.733582%, 35.38208%)" offset="0.777344"/><stop stop-opacity="1" stop-color="rgb(20.687866%, 9.584045%, 35.366821%)" offset="0.78125"/><stop stop-opacity="1" stop-color="rgb(20.9198%, 9.432983%, 35.351562%)" offset="0.785156"/><stop stop-opacity="1" stop-color="rgb(21.153259%, 9.283447%, 35.336304%)" offset="0.789062"/><stop stop-opacity="1" stop-color="rgb(21.385193%, 9.132385%, 35.321045%)" offset="0.792969"/><stop stop-opacity="1" stop-color="rgb(21.618652%, 8.982849%, 35.305786%)" offset="0.796875"/><stop stop-opacity="1" stop-color="rgb(21.850586%, 8.833313%, 35.290527%)" offset="0.800781"/><stop stop-opacity="1" stop-color="rgb(22.084045%, 8.683777%, 35.275269%)" offset="0.804688"/><stop stop-opacity="1" stop-color="rgb(22.317505%, 8.532715%, 35.26001%)" offset="0.808594"/><stop stop-opacity="1" stop-color="rgb(22.550964%, 8.383179%, 35.244751%)" offset="0.8125"/><stop stop-opacity="1" stop-color="rgb(22.782898%, 8.232117%, 35.229492%)" offset="0.816406"/><stop stop-opacity="1" stop-color="rgb(23.016357%, 8.082581%, 35.214233%)" offset="0.820312"/><stop stop-opacity="1" stop-color="rgb(23.248291%, 7.931519%, 35.198975%)" offset="0.824219"/><stop stop-opacity="1" stop-color="rgb(23.48175%, 7.781982%, 35.183716%)" offset="0.828125"/><stop stop-opacity="1" stop-color="rgb(23.713684%, 7.632446%, 35.166931%)" offset="0.832031"/><stop stop-opacity="1" stop-color="rgb(23.947144%, 7.48291%, 35.151672%)" offset="0.835938"/><stop stop-opacity="1" stop-color="rgb(24.180603%, 7.331848%, 35.136414%)" offset="0.839844"/><stop stop-opacity="1" stop-color="rgb(24.414062%, 7.182312%, 35.121155%)" offset="0.84375"/><stop stop-opacity="1" stop-color="rgb(24.645996%, 7.03125%, 35.105896%)" offset="0.847656"/><stop stop-opacity="1" stop-color="rgb(24.879456%, 6.881714%, 35.090637%)" offset="0.851562"/><stop stop-opacity="1" stop-color="rgb(25.111389%, 6.732178%, 35.075378%)" offset="0.855469"/><stop stop-opacity="1" stop-color="rgb(25.344849%, 6.582642%, 35.06012%)" offset="0.859375"/><stop stop-opacity="1" stop-color="rgb(25.576782%, 6.43158%, 35.044861%)" offset="0.863281"/><stop stop-opacity="1" stop-color="rgb(25.810242%, 6.282043%, 35.029602%)" offset="0.867188"/><stop stop-opacity="1" stop-color="rgb(26.043701%, 6.130981%, 35.014343%)" offset="0.871094"/><stop stop-opacity="1" stop-color="rgb(26.277161%, 5.981445%, 34.999084%)" offset="0.875"/><stop stop-opacity="1" stop-color="rgb(26.509094%, 5.830383%, 34.983826%)" offset="0.878906"/><stop stop-opacity="1" stop-color="rgb(26.742554%, 5.680847%, 34.968567%)" offset="0.882812"/><stop stop-opacity="1" stop-color="rgb(26.974487%, 5.531311%, 34.953308%)" offset="0.886719"/><stop stop-opacity="1" stop-color="rgb(27.207947%, 5.381775%, 34.938049%)" offset="0.890625"/><stop stop-opacity="1" stop-color="rgb(27.43988%, 5.230713%, 34.922791%)" offset="0.894531"/><stop stop-opacity="1" stop-color="rgb(27.67334%, 5.081177%, 34.907532%)" offset="0.898438"/><stop stop-opacity="1" stop-color="rgb(27.906799%, 4.930115%, 34.892273%)" offset="0.902344"/><stop stop-opacity="1" stop-color="rgb(28.140259%, 4.780579%, 34.877014%)" offset="0.90625"/><stop stop-opacity="1" stop-color="rgb(28.372192%, 4.631042%, 34.861755%)" offset="0.910156"/><stop stop-opacity="1" stop-color="rgb(28.605652%, 4.481506%, 34.846497%)" offset="0.914062"/><stop stop-opacity="1" stop-color="rgb(28.837585%, 4.330444%, 34.831238%)" offset="0.917969"/><stop stop-opacity="1" stop-color="rgb(29.071045%, 4.180908%, 34.815979%)" offset="0.921875"/><stop stop-opacity="1" stop-color="rgb(29.304504%, 4.029846%, 34.80072%)" offset="0.925781"/><stop stop-opacity="1" stop-color="rgb(29.537964%, 3.88031%, 34.785461%)" offset="0.929688"/><stop stop-opacity="1" stop-color="rgb(29.769897%, 3.730774%, 34.770203%)" offset="0.933594"/><stop stop-opacity="1" stop-color="rgb(30.003357%, 3.581238%, 34.754944%)" offset="0.9375"/><stop stop-opacity="1" stop-color="rgb(30.235291%, 3.430176%, 34.738159%)" offset="0.941406"/><stop stop-opacity="1" stop-color="rgb(30.46875%, 3.28064%, 34.7229%)" offset="0.945312"/><stop stop-opacity="1" stop-color="rgb(30.700684%, 3.129578%, 34.707642%)" offset="0.949219"/><stop stop-opacity="1" stop-color="rgb(30.934143%, 2.980042%, 34.692383%)" offset="0.953125"/><stop stop-opacity="1" stop-color="rgb(31.167603%, 2.828979%, 34.677124%)" offset="0.957031"/><stop stop-opacity="1" stop-color="rgb(31.401062%, 2.679443%, 34.661865%)" offset="0.960938"/><stop stop-opacity="1" stop-color="rgb(31.632996%, 2.529907%, 34.646606%)" offset="0.964844"/><stop stop-opacity="1" stop-color="rgb(31.866455%, 2.380371%, 34.631348%)" offset="0.96875"/><stop stop-opacity="1" stop-color="rgb(32.098389%, 2.229309%, 34.616089%)" offset="0.972656"/><stop stop-opacity="1" stop-color="rgb(32.331848%, 2.079773%, 34.60083%)" offset="0.976562"/><stop stop-opacity="1" stop-color="rgb(32.563782%, 1.928711%, 34.585571%)" offset="0.980469"/><stop stop-opacity="1" stop-color="rgb(32.797241%, 1.779175%, 34.570312%)" offset="0.984375"/><stop stop-opacity="1" stop-color="rgb(33.030701%, 1.629639%, 34.555054%)" offset="0.988281"/><stop stop-opacity="1" stop-color="rgb(33.26416%, 1.480103%, 34.539795%)" offset="0.992188"/><stop stop-opacity="1" stop-color="rgb(33.496094%, 1.329041%, 34.524536%)" offset="0.996094"/><stop stop-opacity="1" stop-color="rgb(33.729553%, 1.179504%, 34.509277%)" offset="1"/></linearGradient><clipPath id="28e23bb52c"><path d="M 17.632812 16.789062 L 330 16.789062 L 330 433.210938 L 17.632812 433.210938 Z M 17.632812 16.789062 " clip-rule="nonzero"/></clipPath><clipPath id="d261d0a93f"><path d="M 0.632812 0.789062 L 313 0.789062 L 313 417 L 0.632812 417 Z M 0.632812 0.789062 " clip-rule="nonzero"/></clipPath><clipPath id="f369bcb1ca"><rect x="0" width="313" y="0" height="418"/></clipPath></defs><rect x="-33" width="396" fill="#ffffff" y="-44.999998" height="539.99998" fill-opacity="1"/><rect x="-33" fill="url(#360a1ddb12)" width="396" y="-44.999998" height="539.99998"/><g clip-path="url(#28e23bb52c)"><g transform="matrix(1, 0, 0, 1, 17, 16)"><g clip-path="url(#f369bcb1ca)"><g clip-path="url(#d261d0a93f)"><path fill="#fefefe" d="M 0.632812 0.789062 L 313 0.789062 L 313 416.867188 L 0.632812 416.867188 Z M 0.632812 0.789062 " fill-opacity="1" fill-rule="nonzero"/></g></g></g></g><g fill="#0d2356" fill-opacity="1"><g transform="translate(108.623129, 46.054856)"><g><path d="M 3.875 0.140625 C 3.4375 0.140625 3.066406 -0.00390625 2.765625 -0.296875 C 2.472656 -0.597656 2.328125 -0.960938 2.328125 -1.390625 L 2.328125 -21.5625 C 2.328125 -22 2.476562 -22.363281 2.78125 -22.65625 C 3.082031 -22.957031 3.445312 -23.109375 3.875 -23.109375 L 10.40625 -23.109375 C 11.550781 -23.109375 12.640625 -22.894531 13.671875 -22.46875 C 14.703125 -22.039062 15.609375 -21.441406 16.390625 -20.671875 C 17.160156 -19.910156 17.765625 -18.992188 18.203125 -17.921875 C 18.640625 -16.859375 18.859375 -15.75 18.859375 -14.59375 C 18.859375 -13.457031 18.640625 -12.378906 18.203125 -11.359375 C 17.773438 -10.347656 17.171875 -9.460938 16.390625 -8.703125 C 15.609375 -7.941406 14.695312 -7.347656 13.65625 -6.921875 C 12.625 -6.492188 11.535156 -6.28125 10.390625 -6.28125 L 5.4375 -6.28125 L 5.4375 -1.390625 C 5.4375 -0.953125 5.28125 -0.585938 4.96875 -0.296875 C 4.664062 -0.00390625 4.300781 0.140625 3.875 0.140625 Z M 5.4375 -9.375 L 10.4375 -9.375 C 11.1875 -9.375 11.882812 -9.515625 12.53125 -9.796875 C 13.175781 -10.085938 13.742188 -10.484375 14.234375 -10.984375 C 14.710938 -11.460938 15.082031 -12.015625 15.34375 -12.640625 C 15.601562 -13.265625 15.734375 -13.914062 15.734375 -14.59375 C 15.734375 -15.269531 15.597656 -15.941406 15.328125 -16.609375 C 15.054688 -17.285156 14.6875 -17.867188 14.21875 -18.359375 C 13.726562 -18.859375 13.160156 -19.253906 12.515625 -19.546875 C 11.867188 -19.835938 11.179688 -19.984375 10.453125 -19.984375 L 5.4375 -19.984375 Z M 5.4375 -9.375 "/></g></g></g><g fill="#0d2356" fill-opacity="1"><g transform="translate(128.13504, 46.054856)"><g><path d="M 3.875 0.125 C 3.445312 0.125 3.082031 -0.0195312 2.78125 -0.3125 C 2.476562 -0.613281 2.328125 -0.976562 2.328125 -1.40625 L 2.328125 -21.578125 C 2.328125 -22.003906 2.476562 -22.363281 2.78125 -22.65625 C 3.082031 -22.957031 3.445312 -23.109375 3.875 -23.109375 C 4.300781 -23.109375 4.664062 -22.960938 4.96875 -22.671875 C 5.28125 -22.378906 5.4375 -22.015625 5.4375 -21.578125 L 5.4375 -1.40625 C 5.4375 -0.96875 5.28125 -0.601562 4.96875 -0.3125 C 4.664062 -0.0195312 4.300781 0.125 3.875 0.125 Z M 3.875 0.125 "/></g></g></g><g fill="#0d2356" fill-opacity="1"><g transform="translate(135.894271, 46.054856)"><g><path d="M 3.671875 0 L 3.625 -0.015625 C 3.25 -0.078125 2.9375 -0.25 2.6875 -0.53125 C 2.445312 -0.8125 2.328125 -1.144531 2.328125 -1.53125 L 2.328125 -21.5625 C 2.328125 -22.007812 2.472656 -22.378906 2.765625 -22.671875 C 3.066406 -22.960938 3.4375 -23.109375 3.875 -23.109375 C 4.300781 -23.109375 4.664062 -22.960938 4.96875 -22.671875 C 5.28125 -22.378906 5.4375 -22.007812 5.4375 -21.5625 L 5.4375 -3.078125 L 15.171875 -3.0625 C 15.597656 -3.0625 15.957031 -2.914062 16.25 -2.625 C 16.539062 -2.332031 16.6875 -1.972656 16.6875 -1.546875 C 16.6875 -1.085938 16.539062 -0.710938 16.25 -0.421875 C 15.957031 -0.140625 15.597656 0 15.171875 0 Z M 3.671875 0 "/></g></g></g><g fill="#0d2356" fill-opacity="1"><g transform="translate(153.847338, 46.054856)"><g><path d="M 3.796875 0.109375 C 3.359375 0.109375 2.984375 -0.0351562 2.671875 -0.328125 C 2.367188 -0.628906 2.21875 -1.003906 2.21875 -1.453125 L 2.21875 -14.46875 C 2.21875 -15.644531 2.398438 -16.757812 2.765625 -17.8125 C 3.140625 -18.863281 3.671875 -19.78125 4.359375 -20.5625 C 5.085938 -21.382812 5.960938 -22.019531 6.984375 -22.46875 C 8.003906 -22.914062 9.144531 -23.140625 10.40625 -23.140625 C 11.707031 -23.140625 12.882812 -22.914062 13.9375 -22.46875 C 15 -22.019531 15.910156 -21.378906 16.671875 -20.546875 C 17.398438 -19.734375 17.957031 -18.78125 18.34375 -17.6875 C 18.726562 -16.59375 18.921875 -15.414062 18.921875 -14.15625 L 18.921875 -1.453125 C 18.921875 -1.023438 18.765625 -0.648438 18.453125 -0.328125 C 18.140625 -0.0351562 17.765625 0.109375 17.328125 0.109375 C 16.867188 0.109375 16.484375 -0.0351562 16.171875 -0.328125 C 15.867188 -0.628906 15.71875 -1.003906 15.71875 -1.453125 L 15.71875 -6.671875 L 5.40625 -6.671875 L 5.40625 -1.453125 C 5.40625 -1.003906 5.25 -0.628906 4.9375 -0.328125 C 4.632812 -0.0351562 4.253906 0.109375 3.796875 0.109375 Z M 5.40625 -9.859375 L 15.71875 -9.859375 L 15.71875 -14.09375 C 15.71875 -15.820312 15.238281 -17.238281 14.28125 -18.34375 C 13.820312 -18.863281 13.265625 -19.265625 12.609375 -19.546875 C 11.953125 -19.828125 11.238281 -19.96875 10.46875 -19.96875 C 8.957031 -19.96875 7.734375 -19.460938 6.796875 -18.453125 C 5.867188 -17.429688 5.40625 -16.023438 5.40625 -14.234375 Z M 5.40625 -9.859375 "/></g></g></g><g fill="#0d2356" fill-opacity="1"><g transform="translate(174.970646, 46.054856)"><g><path d="M 3.765625 0.015625 C 3.335938 0.015625 2.972656 -0.128906 2.671875 -0.421875 C 2.367188 -0.710938 2.21875 -1.070312 2.21875 -1.5 L 2.21875 -21.546875 C 2.21875 -21.972656 2.367188 -22.335938 2.671875 -22.640625 C 2.972656 -22.941406 3.335938 -23.09375 3.765625 -23.09375 L 10.109375 -23.09375 C 11.253906 -23.09375 12.335938 -22.882812 13.359375 -22.46875 C 14.390625 -22.050781 15.289062 -21.46875 16.0625 -20.71875 C 16.832031 -19.976562 17.4375 -19.082031 17.875 -18.03125 C 18.3125 -16.988281 18.53125 -15.890625 18.53125 -14.734375 C 18.53125 -13.785156 18.378906 -12.882812 18.078125 -12.03125 C 17.773438 -11.175781 17.34375 -10.40625 16.78125 -9.71875 C 16.21875 -9.03125 15.554688 -8.441406 14.796875 -7.953125 C 14.035156 -7.460938 13.210938 -7.113281 12.328125 -6.90625 L 16.625 -2.640625 C 16.925781 -2.304688 17.078125 -1.9375 17.078125 -1.53125 C 17.078125 -1.320312 17.03125 -1.125 16.9375 -0.9375 C 16.851562 -0.757812 16.742188 -0.597656 16.609375 -0.453125 C 16.265625 -0.148438 15.894531 0 15.5 0 C 15.0625 0 14.707031 -0.148438 14.4375 -0.453125 L 8.21875 -6.625 L 5.3125 -6.625 L 5.3125 -1.5 C 5.3125 -1.070312 5.160156 -0.710938 4.859375 -0.421875 C 4.566406 -0.128906 4.203125 0.015625 3.765625 0.015625 Z M 5.3125 -9.71875 L 10.125 -9.71875 C 10.882812 -9.71875 11.585938 -9.847656 12.234375 -10.109375 C 12.890625 -10.367188 13.457031 -10.726562 13.9375 -11.1875 C 14.414062 -11.65625 14.785156 -12.191406 15.046875 -12.796875 C 15.316406 -13.410156 15.453125 -14.054688 15.453125 -14.734375 C 15.453125 -15.421875 15.316406 -16.09375 15.046875 -16.75 C 14.773438 -17.414062 14.398438 -17.984375 13.921875 -18.453125 C 13.429688 -18.921875 12.863281 -19.289062 12.21875 -19.5625 C 11.570312 -19.832031 10.882812 -19.96875 10.15625 -19.96875 L 5.3125 -19.96875 Z M 5.3125 -9.71875 "/></g></g></g><g fill="#0d2356" fill-opacity="1"><g transform="translate(194.587649, 46.054856)"><g/></g></g><g fill="#0d2356" fill-opacity="1"><g transform="translate(202.662153, 46.054856)"><g><path d="M 3.875 0.125 C 3.445312 0.125 3.082031 -0.0195312 2.78125 -0.3125 C 2.476562 -0.613281 2.328125 -0.976562 2.328125 -1.40625 L 2.328125 -21.578125 C 2.328125 -22.003906 2.476562 -22.363281 2.78125 -22.65625 C 3.082031 -22.957031 3.445312 -23.109375 3.875 -23.109375 C 4.300781 -23.109375 4.664062 -22.960938 4.96875 -22.671875 C 5.28125 -22.378906 5.4375 -22.015625 5.4375 -21.578125 L 5.4375 -1.40625 C 5.4375 -0.96875 5.28125 -0.601562 4.96875 -0.3125 C 4.664062 -0.0195312 4.300781 0.125 3.875 0.125 Z M 3.875 0.125 "/></g></g></g><g fill="#0d2356" fill-opacity="1"><g transform="translate(210.421384, 46.054856)"><g><path d="M 7.71875 0.203125 C 6.78125 0.203125 5.882812 0.0234375 5.03125 -0.328125 C 4.1875 -0.691406 3.441406 -1.195312 2.796875 -1.84375 C 2.160156 -2.476562 1.660156 -3.21875 1.296875 -4.0625 C 0.941406 -4.914062 0.765625 -5.816406 0.765625 -6.765625 C 0.765625 -8.054688 1.09375 -9.207031 1.75 -10.21875 C 2.3125 -11.0625 3.09375 -11.832031 4.09375 -12.53125 L 3.703125 -12.890625 C 3.148438 -13.378906 2.675781 -14 2.28125 -14.75 C 1.820312 -15.582031 1.59375 -16.421875 1.59375 -17.265625 C 1.59375 -18.066406 1.738281 -18.816406 2.03125 -19.515625 C 2.332031 -20.222656 2.753906 -20.851562 3.296875 -21.40625 C 3.828125 -21.945312 4.445312 -22.363281 5.15625 -22.65625 C 5.875 -22.957031 6.628906 -23.109375 7.421875 -23.109375 C 8.222656 -23.109375 8.972656 -22.957031 9.671875 -22.65625 C 10.378906 -22.363281 11.003906 -21.945312 11.546875 -21.40625 C 12.078125 -20.863281 12.492188 -20.238281 12.796875 -19.53125 C 13.097656 -18.832031 13.25 -18.085938 13.25 -17.296875 C 13.25 -16.066406 12.910156 -14.992188 12.234375 -14.078125 C 11.566406 -13.160156 10.585938 -12.394531 9.296875 -11.78125 L 13.734375 -7.71875 L 16.203125 -10.578125 C 16.554688 -10.953125 16.960938 -11.140625 17.421875 -11.140625 C 17.828125 -11.140625 18.1875 -10.984375 18.5 -10.671875 C 18.78125 -10.347656 18.921875 -9.988281 18.921875 -9.59375 C 18.921875 -9.207031 18.789062 -8.867188 18.53125 -8.578125 L 16 -5.671875 L 19.34375 -2.625 C 19.8125 -2.207031 20.046875 -1.78125 20.046875 -1.34375 C 20.046875 -0.96875 19.867188 -0.628906 19.515625 -0.328125 C 19.359375 -0.210938 19.195312 -0.117188 19.03125 -0.046875 C 18.863281 0.015625 18.707031 0.046875 18.5625 0.046875 C 18.21875 0.0351562 17.90625 -0.0859375 17.625 -0.328125 L 14.078125 -3.5 L 12.890625 -2.15625 C 12.140625 -1.40625 11.328125 -0.820312 10.453125 -0.40625 C 9.585938 0 8.675781 0.203125 7.71875 0.203125 Z M 7.03125 -13.859375 L 7.265625 -13.921875 C 8.210938 -14.191406 8.972656 -14.644531 9.546875 -15.28125 C 10.117188 -15.894531 10.40625 -16.539062 10.40625 -17.21875 C 10.40625 -17.601562 10.332031 -17.972656 10.1875 -18.328125 C 10.039062 -18.679688 9.84375 -18.992188 9.59375 -19.265625 C 9.0625 -19.835938 8.367188 -20.125 7.515625 -20.125 C 7.140625 -20.125 6.78125 -20.050781 6.4375 -19.90625 C 6.09375 -19.757812 5.796875 -19.554688 5.546875 -19.296875 C 5.296875 -19.046875 5.097656 -18.738281 4.953125 -18.375 C 4.804688 -18.019531 4.734375 -17.648438 4.734375 -17.265625 C 4.734375 -16.828125 4.898438 -16.332031 5.234375 -15.78125 C 5.460938 -15.425781 5.773438 -15.050781 6.171875 -14.65625 Z M 7.609375 -2.8125 C 8.140625 -2.8125 8.675781 -2.9375 9.21875 -3.1875 C 9.757812 -3.445312 10.238281 -3.773438 10.65625 -4.171875 L 11.84375 -5.53125 L 6.1875 -10.65625 C 5.394531 -10.257812 4.769531 -9.738281 4.3125 -9.09375 C 3.851562 -8.457031 3.625 -7.734375 3.625 -6.921875 C 3.625 -6.378906 3.722656 -5.863281 3.921875 -5.375 C 4.128906 -4.882812 4.414062 -4.445312 4.78125 -4.0625 C 5.144531 -3.664062 5.566406 -3.359375 6.046875 -3.140625 C 6.535156 -2.921875 7.054688 -2.8125 7.609375 -2.8125 Z M 7.609375 -2.8125 "/></g></g></g><g fill="#0d2356" fill-opacity="1"><g transform="translate(231.229419, 46.054856)"><g><path d="M 3.875 0.125 C 3.445312 0.125 3.082031 -0.0195312 2.78125 -0.3125 C 2.476562 -0.613281 2.328125 -0.976562 2.328125 -1.40625 L 2.328125 -21.578125 C 2.328125 -22.003906 2.476562 -22.363281 2.78125 -22.65625 C 3.082031 -22.957031 3.445312 -23.109375 3.875 -23.109375 C 4.300781 -23.109375 4.664062 -22.960938 4.96875 -22.671875 C 5.28125 -22.378906 5.4375 -22.015625 5.4375 -21.578125 L 5.4375 -1.40625 C 5.4375 -0.96875 5.28125 -0.601562 4.96875 -0.3125 C 4.664062 -0.0195312 4.300781 0.125 3.875 0.125 Z M 3.875 0.125 "/></g></g></g></svg>